<svg width="115" height="23" viewBox="0 0 115 23" fill="none" xmlns="http://www.w3.org/2000/svg">
<path d="M6.409 2.048H6.902L9.193 9.994L5.858 22H0.058L6.409 2.048ZM12.934 18.462H8.091L9.309 13.996H11.629L8.207 2.048H13.514L19.865 22H13.949L12.934 18.462ZM23.0122 0.452999H28.3772V22H23.0122V0.452999ZM33.1282 0.452999H38.4932V22H33.1282V0.452999ZM52.4594 2.048H58.2594V22H52.4594V2.048ZM59.4774 17.563H60.6664C61.2077 17.563 61.6137 17.5533 61.8844 17.534C62.1744 17.4953 62.3871 17.418 62.5224 17.302C62.6577 17.186 62.7447 17.0217 62.7834 16.809C62.8414 16.5963 62.8704 16.287 62.8704 15.881C62.8704 15.4557 62.8414 15.1367 62.7834 14.924C62.7447 14.7113 62.6577 14.547 62.5224 14.431C62.2904 14.2377 61.6717 14.141 60.6664 14.141H59.4774V9.704H60.4924C61.0337 9.704 61.4397 9.69433 61.7104 9.675C62.0004 9.63633 62.2131 9.559 62.3484 9.443C62.4837 9.327 62.5707 9.17233 62.6094 8.979C62.6674 8.76633 62.6964 8.47633 62.6964 8.109C62.6964 7.72233 62.6674 7.43233 62.6094 7.239C62.5707 7.02633 62.4837 6.862 62.3484 6.746C62.2131 6.63 62.0004 6.56233 61.7104 6.543C61.4397 6.50433 61.0337 6.485 60.4924 6.485H59.4774V2.048H62.7834C66.6694 2.048 68.6124 3.72033 68.6124 7.065C68.6124 8.47633 68.3321 9.53967 67.7714 10.255C67.2301 10.9703 66.3601 11.473 65.1614 11.763V11.879C66.4181 12.169 67.3171 12.6233 67.8584 13.242C68.4771 13.9767 68.7864 15.1173 68.7864 16.664C68.7864 18.4427 68.3127 19.7767 67.3654 20.666C66.4181 21.5553 64.9004 22 62.8124 22H59.4774V17.563ZM73.1051 0.452999H78.4701V4.629H73.1051V0.452999ZM73.1051 7.21H78.4701V22H73.1051V7.21ZM83.2212 0.452999H88.5862V22H83.2212V0.452999ZM89.8042 17.766V11.618L92.3272 7.21H97.9822L93.6322 14.228L98.0692 22H92.2112L89.8042 17.766ZM107.216 13.155H109.246C109.246 12.0723 109.14 11.3763 108.927 11.067C108.811 10.893 108.656 10.7867 108.463 10.748C108.27 10.69 107.989 10.661 107.622 10.661H107.216V6.978H107.622C109.285 6.978 110.561 7.11333 111.45 7.384C112.359 7.65467 113.026 8.09933 113.451 8.718C113.838 9.25933 114.07 9.95533 114.147 10.806C114.244 11.6567 114.292 12.9327 114.292 14.634V15.794H107.216V13.155ZM108.202 22.232C106.423 22.232 105.022 22.087 103.997 21.797C102.992 21.4877 102.238 21.0043 101.735 20.347C101.29 19.767 101 19.0517 100.865 18.201C100.73 17.331 100.662 16.142 100.662 14.634C100.662 13.242 100.71 12.14 100.807 11.328C100.904 10.4967 101.107 9.791 101.416 9.211C101.764 8.573 102.296 8.08 103.011 7.732C103.746 7.36467 104.741 7.13267 105.998 7.036V15.794C105.998 16.4513 106.027 16.925 106.085 17.215C106.143 17.4857 106.278 17.6887 106.491 17.824C106.723 17.9787 107.081 18.0657 107.564 18.085C108.183 18.1237 108.84 18.143 109.536 18.143C110.773 18.143 111.672 18.114 112.233 18.056L113.712 17.94V21.681C112.939 21.913 111.875 22.0677 110.522 22.145C109.865 22.203 109.091 22.232 108.202 22.232Z" fill="#D6D6D6"/>
</svg>
